<svg width="125" height="121" viewBox="0 0 125 121" fill="none" xmlns="http://www.w3.org/2000/svg">
<path fill-rule="evenodd" clip-rule="evenodd" d="M9.96268 43.2579L41.2666 38.1092C41.2666 38.1092 35.9293 52.982 52.4089 56.3017C52.6941 56.0623 52.802 48.1258 47.5554 50.1032L46.9854 49.2995L54.5602 40.0457C54.5602 40.0457 62.999 40.4218 62.9365 49.1912C62.9365 49.1912 71.6518 36.5666 52.9677 33.791L75.1289 6.5698C75.1289 6.5698 142.797 43.3837 85.19 97.8105C85.19 97.8105 83.0628 61.0891 69.0242 67.8329C69.0242 67.8329 56.3951 72.2576 79.939 89.9466C79.939 89.9466 31.1217 116.947 13.2017 68.9523C13.2017 68.9523 8.51683 54.416 9.70305 45.6252L9.96936 43.484L9.96268 43.2579Z" fill="#6CC04A"/>
</svg>
